<svg xmlns="http://www.w3.org/2000/svg" width="48" height="48" viewBox="0 0 48 48" fill="none">
  <rect width="48" height="48" rx="8" fill="#2E7D32" />
  <path d="M8 28C12 24 16 32 20 28C24 24 28 32 32 28C36 24 40 32 44 28" stroke="#8BC34A" stroke-width="2" />
  <path d="M8 22C12 18 16 26 20 22C24 18 28 26 32 22C36 18 40 26 44 22" stroke="#A5D6A7" stroke-width="2" />
  <path d="M8 34C12 30 16 38 20 34C24 30 28 38 32 34C36 30 40 38 44 34" stroke="#558B2F" stroke-width="2" />
  <path d="M24 6L30 10L24 14L18 10L24 6Z" fill="white" />
  <rect x="22" y="14" width="4" height="26" fill="white" />
</svg> 